<svg width="20" height="20" viewBox="0 0 20 20" fill="none" xmlns="http://www.w3.org/2000/svg">
<path d="M5.83317 1.66683C5.83317 1.20659 6.20627 0.833496 6.66651 0.833496C7.12674 0.833496 7.49984 1.20659 7.49984 1.66683V2.50016H12.4998V1.66683C12.4998 1.20659 12.8729 0.833496 13.3332 0.833496C13.7934 0.833496 14.1665 1.20659 14.1665 1.66683V2.50016H16.6665C17.587 2.50016 18.3332 3.24635 18.3332 4.16683V7.50016H1.66651V4.16683C1.66651 3.24635 2.4127 2.50016 3.33317 2.50016H5.83317V1.66683Z" fill="white"/>
<path fill-rule="evenodd" clip-rule="evenodd" d="M16.6665 18.3335C17.587 18.3335 18.3332 17.5873 18.3332 16.6668L18.3332 9.16683L1.6665 9.16683L1.6665 16.6668C1.6665 17.5873 2.4127 18.3335 3.33317 18.3335L16.6665 18.3335ZM4.99984 11.6668C4.99984 11.2066 5.37293 10.8335 5.83317 10.8335C6.29341 10.8335 6.66651 11.2066 6.66651 11.6668C6.66651 12.1271 6.29341 12.5002 5.83317 12.5002C5.37293 12.5002 4.99984 12.1271 4.99984 11.6668ZM4.99984 15.0002C4.99984 14.5399 5.37293 14.1668 5.83317 14.1668C6.29341 14.1668 6.66651 14.5399 6.66651 15.0002C6.66651 15.4604 6.29341 15.8335 5.83317 15.8335C5.37293 15.8335 4.99984 15.4604 4.99984 15.0002ZM9.99984 10.8335C9.5396 10.8335 9.16651 11.2066 9.16651 11.6668C9.16651 12.1271 9.5396 12.5002 9.99984 12.5002C10.4601 12.5002 10.8332 12.1271 10.8332 11.6668C10.8332 11.2066 10.4601 10.8335 9.99984 10.8335ZM9.16651 15.0002C9.16651 14.5399 9.5396 14.1668 9.99984 14.1668C10.4601 14.1668 10.8332 14.5399 10.8332 15.0002C10.8332 15.4604 10.4601 15.8335 9.99984 15.8335C9.5396 15.8335 9.16651 15.4604 9.16651 15.0002ZM14.1665 10.8335C13.7063 10.8335 13.3332 11.2066 13.3332 11.6668C13.3332 12.1271 13.7063 12.5002 14.1665 12.5002C14.6267 12.5002 14.9998 12.1271 14.9998 11.6668C14.9998 11.2066 14.6267 10.8335 14.1665 10.8335ZM13.3332 15.0002C13.3332 14.5399 13.7063 14.1668 14.1665 14.1668C14.6267 14.1668 14.9998 14.5399 14.9998 15.0002C14.9998 15.4604 14.6267 15.8335 14.1665 15.8335C13.7063 15.8335 13.3332 15.4604 13.3332 15.0002Z" fill="white"/>
</svg>
