<svg width="20" height="20" viewBox="0 0 20 20" fill="none" xmlns="http://www.w3.org/2000/svg">
<g clip-path="url(#clip0_1601_8825)">
<path fill-rule="evenodd" clip-rule="evenodd" d="M3.66675 2.5C2.56218 2.5 1.66675 3.39543 1.66675 4.5V15.5C1.66675 16.6046 2.56218 17.5 3.66675 17.5H16.3334C17.438 17.5 18.3334 16.6046 18.3334 15.5V4.5C18.3334 3.39543 17.438 2.5 16.3334 2.5H3.66675ZM5.19361 9.38981C5.58431 9.78051 6.11421 10 6.66675 10C7.21928 10 7.74919 9.78051 8.13989 9.38981C8.53059 8.99911 8.75008 8.4692 8.75008 7.91667C8.75008 7.36413 8.53059 6.83423 8.13989 6.44353C7.74919 6.05283 7.21928 5.83333 6.66675 5.83333C6.11421 5.83333 5.58431 6.05283 5.19361 6.44353C4.80291 6.83423 4.58341 7.36413 4.58341 7.91667C4.58341 8.4692 4.80291 8.99911 5.19361 9.38981ZM4.30973 11.8096C3.6846 12.4348 3.33341 13.2826 3.33341 14.1667H10.0001C10.0001 13.2826 9.64889 12.4348 9.02377 11.8096C8.39865 11.1845 7.5508 10.8333 6.66675 10.8333C5.78269 10.8333 4.93485 11.1845 4.30973 11.8096ZM11.6667 5.83333C11.2065 5.83333 10.8334 6.20643 10.8334 6.66667C10.8334 7.1269 11.2065 7.5 11.6667 7.5H15.8334C16.2937 7.5 16.6667 7.1269 16.6667 6.66667C16.6667 6.20643 16.2937 5.83333 15.8334 5.83333H11.6667ZM11.6667 10C11.6667 9.53976 12.0398 9.16667 12.5001 9.16667H15.8334C16.2937 9.16667 16.6667 9.53976 16.6667 10C16.6667 10.4602 16.2937 10.8333 15.8334 10.8333H12.5001C12.0398 10.8333 11.6667 10.4602 11.6667 10ZM14.1667 12.5C13.7065 12.5 13.3334 12.8731 13.3334 13.3333C13.3334 13.7936 13.7065 14.1667 14.1667 14.1667H15.8334C16.2937 14.1667 16.6667 13.7936 16.6667 13.3333C16.6667 12.8731 16.2937 12.5 15.8334 12.5H14.1667Z" fill="white"/>
</g>
<defs>
<clipPath id="clip0_1601_8825">
<rect width="20" height="20" fill="white"/>
</clipPath>
</defs>
</svg>
