<svg width="20" height="20" viewBox="0 0 20 20" fill="none" xmlns="http://www.w3.org/2000/svg">
<path fill-rule="evenodd" clip-rule="evenodd" d="M17.2559 17.033C17.4122 16.8767 17.5 16.6648 17.5 16.4437V7.68541C17.5001 7.55843 17.4712 7.4331 17.4154 7.319C17.3597 7.2049 17.2786 7.10505 17.1783 7.02708L10.5117 1.84208C10.3654 1.72829 10.1853 1.6665 10 1.6665C9.81467 1.6665 9.63462 1.72829 9.48833 1.84208L2.82167 7.02708C2.72143 7.10505 2.64035 7.2049 2.5846 7.319C2.52885 7.4331 2.49991 7.55843 2.5 7.68541V16.4437C2.5 16.6648 2.5878 16.8767 2.74408 17.033C2.90036 17.1893 3.11232 17.2771 3.33333 17.2771H16.6667C16.8877 17.2771 17.0996 17.1893 17.2559 17.033ZM10.7143 6.6665V9.66875H12.5L9.28571 14.1665V11.168H7.5L10.7143 6.6665Z" fill="white"/>
</svg>
