<svg xmlns="http://www.w3.org/2000/svg" width="12" height="12" viewBox="0 0 12 12" fill="none">
  <path d="M5.50008 6.4999L2.49982 6.4999C2.22372 6.4999 1.9999 6.27608 1.9999 5.99997L-nan -nanL1.9999 5.99997C1.9999 5.72387 2.22372 5.50005 2.49982 5.50005L5.50008 5.50005L5.50008 2.4998C5.50008 2.2237 5.7239 1.99987 6 1.99987L-nan -nanL6 1.99987C6.2761 1.99987 6.49993 2.2237 6.49992 2.4998L6.49992 5.50005L9.50018 5.50005C9.77628 5.50005 10.0001 5.72387 10.0001 5.99997L-nan -nanL10.0001 5.99997C10.0001 6.27608 9.77628 6.4999 9.50018 6.4999L6.49992 6.4999L6.49992 9.50015C6.49992 9.77625 6.2761 10.0001 6 10.0001L-nan -nanL6 10.0001C5.7239 10.0001 5.50008 9.77625 5.50008 9.50015L5.50008 6.4999Z" fill="white"/>
</svg>