<svg width="14" height="14" viewBox="0 0 14 14" fill="none" xmlns="http://www.w3.org/2000/svg">
<g clip-path="url(#clip0_1701_14524)">
<path fill-rule="evenodd" clip-rule="evenodd" d="M6.99992 12.2498L10.2998 9.00358C10.9524 8.36154 11.3969 7.54352 11.5769 6.65298C11.757 5.76244 11.6646 4.83938 11.3113 4.00051C10.9581 3.16164 10.36 2.44465 9.59257 1.9402C8.82514 1.43575 7.9229 1.1665 6.99992 1.1665C6.07694 1.1665 5.17469 1.43575 4.40726 1.9402C3.63984 2.44465 3.0417 3.16164 2.68849 4.00051C2.33528 4.83938 2.24286 5.76244 2.42292 6.65298C2.60298 7.54352 3.04743 8.36154 3.70007 9.00358L6.99992 12.2498ZM6.99992 7.58317C7.96642 7.58317 8.74992 6.79967 8.74992 5.83317C8.74992 4.86667 7.96642 4.08317 6.99992 4.08317C6.03342 4.08317 5.24992 4.86667 5.24992 5.83317C5.24992 6.79967 6.03342 7.58317 6.99992 7.58317Z" fill="#8E90AC"/>
</g>
<defs>
<clipPath id="clip0_1701_14524">
<rect width="14" height="14" fill="white"/>
</clipPath>
</defs>
</svg>
