<svg width="20" height="20" viewBox="0 0 20 20" fill="none" xmlns="http://www.w3.org/2000/svg">
<g clip-path="url(#clip0_1601_8835)">
<path d="M9.99992 0.833496L17.9166 5.41683V14.5835L9.99992 19.1668L2.08325 14.5835V5.41683L9.99992 0.833496ZM9.99992 12.5002C10.663 12.5002 11.2988 12.2368 11.7677 11.7679C12.2365 11.2991 12.4999 10.6632 12.4999 10.0002C12.4999 9.33712 12.2365 8.70124 11.7677 8.23239C11.2988 7.76355 10.663 7.50016 9.99992 7.50016C9.33688 7.50016 8.70099 7.76355 8.23215 8.23239C7.76331 8.70124 7.49992 9.33712 7.49992 10.0002C7.49992 10.6632 7.76331 11.2991 8.23215 11.7679C8.70099 12.2368 9.33688 12.5002 9.99992 12.5002Z" fill="white"/>
</g>
<defs>
<clipPath id="clip0_1601_8835">
<rect width="20" height="20" fill="white"/>
</clipPath>
</defs>
</svg>
